<svg width="24" height="24" viewBox="0 0 24 24" fill="none" xmlns="http://www.w3.org/2000/svg">
<g clip-path="url(#clip0)">
<path d="M22.1347 9.45525C22.5693 9.03164 22.7227 8.40993 22.5352 7.83276C22.3476 7.25559 21.8581 6.84285 21.2575 6.75562L16.0061 5.99254C15.903 5.97759 15.8139 5.91285 15.7678 5.81939L13.4193 1.06087C13.1508 0.516651 12.6069 0.178589 12 0.178589C11.3931 0.178589 10.8493 0.516651 10.5807 1.06087L8.23225 5.81943C8.18608 5.91285 8.09702 5.97759 7.99389 5.99259L2.74258 6.75562C2.14202 6.84285 1.6525 7.25559 1.46491 7.83276C1.27732 8.40993 1.43079 9.03164 1.86541 9.45525L5.66533 13.1593C5.73991 13.232 5.77399 13.3368 5.75636 13.4395L4.85932 18.6696C4.75675 19.2678 4.99797 19.8609 5.48894 20.2176C5.97991 20.5744 6.61872 20.6205 7.15582 20.3382L11.8527 17.8688C11.945 17.8203 12.0551 17.8203 12.1474 17.8688L16.8444 20.3382C17.078 20.461 17.3308 20.5217 17.5824 20.5216C17.9091 20.5216 18.2337 20.4193 18.5111 20.2176C19.0021 19.8608 19.2433 19.2676 19.1407 18.6696L18.2437 13.4394C18.2261 13.3367 18.2601 13.232 18.3347 13.1592L22.1347 9.45525ZM16.9958 13.6536L17.8929 18.8838C17.9229 19.0588 17.8148 19.1586 17.767 19.1933C17.719 19.228 17.5907 19.3001 17.4336 19.2174L12.7366 16.7481C12.506 16.6269 12.2531 16.5662 12.0001 16.5662C11.7471 16.5662 11.4941 16.6269 11.2636 16.748L6.56669 19.2173C6.40947 19.2999 6.28118 19.228 6.23332 19.1932C6.18546 19.1585 6.07736 19.0587 6.10741 18.8837L7.00446 13.6536C7.09253 13.14 6.92242 12.6164 6.54925 12.2527L2.74933 8.54864C2.62216 8.4246 2.65094 8.28037 2.66927 8.22412C2.6875 8.16782 2.74905 8.03418 2.92479 8.00868L8.17605 7.2456C8.69163 7.1707 9.13718 6.84707 9.3678 6.37978L11.7163 1.62121C11.7949 1.46198 11.941 1.44478 12.0002 1.44478C12.0593 1.44478 12.2053 1.46193 12.284 1.62121V1.62126L14.6325 6.37982C14.8631 6.84712 15.3086 7.17075 15.8241 7.24565L21.0755 8.00873C21.2512 8.03423 21.3127 8.16787 21.331 8.22417C21.3493 8.28046 21.3781 8.42474 21.2509 8.54868L17.451 12.2527C17.0778 12.6164 16.9077 13.14 16.9958 13.6536Z" fill="#FFFCDD"/>
<path d="M19.396 1.06054C19.1131 0.855044 18.7173 0.917763 18.5117 1.20061L17.8397 2.12554C17.6342 2.40839 17.6969 2.80434 17.9798 3.00984C18.0922 3.09145 18.2224 3.13078 18.3514 3.13078C18.5472 3.13078 18.7402 3.04026 18.8641 2.86983L19.5361 1.94489C19.7416 1.662 19.6789 1.26604 19.396 1.06054Z" fill="#FFFCDD"/>
<path d="M6.15744 2.1218L5.48539 1.19686C5.27994 0.914112 4.88403 0.851393 4.60109 1.0568C4.31825 1.2623 4.25553 1.65825 4.46103 1.9411L5.13308 2.86604C5.25697 3.03662 5.45 3.12708 5.64584 3.12708C5.77489 3.12708 5.90511 3.08776 6.01742 3.0061C6.30027 2.80065 6.36299 2.40469 6.15744 2.1218Z" fill="#FFFCDD"/>
<path d="M2.32274 14.3826C2.21469 14.0501 1.85755 13.8681 1.52497 13.9761L0.437616 14.3295C0.105037 14.4375 -0.0768845 14.7948 0.0311624 15.1272C0.118069 15.3948 0.366272 15.5649 0.633131 15.5649C0.697959 15.5649 0.763912 15.5548 0.828928 15.5337L1.91629 15.1803C2.24882 15.0723 2.43079 14.7152 2.32274 14.3826Z" fill="#FFFCDD"/>
<path d="M12.0003 21.4118C11.6506 21.4118 11.3672 21.6953 11.3672 22.0449V23.1883C11.3672 23.538 11.6506 23.8214 12.0003 23.8214C12.3499 23.8214 12.6334 23.538 12.6334 23.1883V22.0449C12.6334 21.6953 12.35 21.4118 12.0003 21.4118Z" fill="#FFFCDD"/>
<path d="M23.5623 14.3304L22.4749 13.977C22.1425 13.8691 21.7852 14.051 21.6772 14.3835C21.5691 14.7161 21.751 15.0733 22.0836 15.1813L23.171 15.5347C23.236 15.5557 23.3019 15.5658 23.3667 15.5658C23.6336 15.5658 23.8818 15.3957 23.9687 15.1281C24.0768 14.7956 23.8948 14.4384 23.5623 14.3304Z" fill="#FFFCDD"/>
</g>
<defs>
<clipPath id="clip0">
<rect width="24" height="24" fill="white"/>
</clipPath>
</defs>
</svg>
